<?xml version="1.0" encoding="UTF-8"?>
<!DOCTYPE svg PUBLIC "-//W3C//DTD SVG 1.1//EN" "http://www.w3.org/Graphics/SVG/1.1/DTD/svg11.dtd">
<!-- Creator: CorelDRAW 2021.5 -->
<svg xmlns="http://www.w3.org/2000/svg" xml:space="preserve" width="27.42mm" height="13.7827mm" version="1.1" style="shape-rendering:geometricPrecision; text-rendering:geometricPrecision; image-rendering:optimizeQuality; fill-rule:evenodd; clip-rule:evenodd"
viewBox="0 0 466.24 234.36"
 xmlns:xlink="http://www.w3.org/1999/xlink"
 xmlns:xodm="http://www.corel.com/coreldraw/odm/2003">
 <defs>
  <style type="text/css">
   <![CDATA[
    .fil0 {fill:#364684}
   ]]>
  </style>
 </defs>
 <g id="Layer_x0020_1">
  <metadata id="CorelCorpID_0Corel-Layer"/>
  <g id="_1553126292944">
   <path class="fil0" d="M30.31 174.82l0 59.54 91.23 0 0 -56.59 -59.98 -31.01 0 -10.06 -31.25 14.96 0 13.15 60.44 31.27 0 7.74 -30.16 0 0 -13.32 -30.28 -15.68zm150.33 -16.55l14.28 0 0 12.68 -14.28 0 0 -12.68zm-19.23 -19.94l14.28 0 0 12.68 -14.28 0 0 -12.68zm19.23 0l14.28 0 0 12.68 -14.28 0 0 -12.68zm-19.23 19.94l14.28 0 0 12.68 -14.28 0 0 -12.68zm-99.85 -29.65l165.81 -86.56c7.51,3.99 15.02,7.98 22.53,11.97 10.01,5.32 20.03,10.64 30.04,15.96 5.01,2.66 10.02,5.32 15.02,7.98 2.5,1.33 5.01,2.66 7.51,3.99 12.52,6.65 25.03,13.3 37.55,19.96 2,1.06 4,2.13 6.01,3.19 2.5,1.33 5.01,2.66 7.51,3.99 2.25,1.2 4.51,2.4 6.76,3.59 5.01,2.66 10.02,5.32 15.02,7.98 5.01,2.66 10.04,5.28 15.02,7.98l57.22 31.1 -9.35 13.46 28.02 -7.31 -0.05 -10.59 -0.03 -20.24 -12.37 -6.81c-7.33,-4.04 -14.78,-7.84 -22.17,-11.75 -2.5,-1.33 -5.01,-2.66 -7.52,-3.98 -35.08,-18.59 -70.16,-37.19 -105.24,-55.78 -9.9,-5.25 -19.79,-10.49 -29.69,-15.74 -2.51,-1.33 -5.01,-2.66 -7.52,-3.98 -5.01,-2.66 -10.02,-5.31 -15.03,-7.97 -2.51,-1.33 -5.01,-2.66 -7.52,-3.99 -7.39,-3.92 -14.78,-7.84 -22.17,-11.75 -3.01,-1.59 -6.01,-3.19 -9.02,-4.78l-0.38 -0.2c-2.52,1.3 -5.04,2.59 -7.55,3.89 -4.41,2.27 -8.81,4.53 -13.22,6.8 -9.95,5.12 -19.89,10.24 -29.84,15.36 -5.04,2.59 -10.07,5.18 -15.11,7.77 -7.55,3.89 -15.11,7.77 -22.66,11.66 -2.39,1.23 -4.78,2.46 -7.18,3.69 -7.55,3.89 -15.11,7.77 -22.66,11.66 -12.59,6.48 -25.18,12.96 -37.77,19.44 -14.86,7.65 -29.72,15.29 -44.57,22.94 -2.26,1.17 -4.53,2.33 -6.8,3.5 -5.15,2.65 -10.35,5.41 -15.54,7.93 -5.33,2.59 -4.67,5.06 -4.5,10.41 0.2,6.99 0.03,13.98 -0.08,20.97 -0.09,5.42 1.37,4.99 5.68,2.66 5.06,-2.74 10.15,-5.27 15.28,-7.87 7.58,-3.84 15.16,-7.67 22.75,-11.51 5.94,-3.01 11.88,-6.01 17.82,-9.02zm331.55 10.57l0 33.15 -28.89 0 0 -33.74 27.1 -0.33 -58.84 -32.11 0 128.2 31.74 0 0 -33.31 29.39 0 0 33.31 31.16 0 0 -80.02 -31.66 -15.15zm-160.98 -85.07l0 180.24 30.49 0 0 -62.54 31.89 62.54 34.18 0 -31.89 -64.07 27.04 0 0 -67.09 -91.71 -49.07zm30.24 50.31l0 34.97 29.46 0 0 -20.3 -29.46 -14.67zm-131.51 129.93l0 -131.44 92.08 -48.48 0 179.92 -32.62 0 0 -31.64 -28.16 0 0 31.64 -31.29 0zm-40.29 -111.92l0 27.53 30.72 16.3 0 -59.46 -30.72 15.64z"/>
   <circle class="fil0" cx="184.82" cy="219.48" r="1.34"/>
   <polygon class="fil0" points="332.48,0 364.22,0 364.22,75.34 332.48,57.75 "/>
  </g>
 </g>
</svg>
