<?xml version="1.0" encoding="UTF-8"?>
<!DOCTYPE svg PUBLIC "-//W3C//DTD SVG 1.1//EN" "http://www.w3.org/Graphics/SVG/1.1/DTD/svg11.dtd">
<!-- Creator: CorelDRAW 2021.5 -->
<svg xmlns="http://www.w3.org/2000/svg" xml:space="preserve" width="27.42mm" height="13.7827mm" version="1.1" style="shape-rendering:geometricPrecision; text-rendering:geometricPrecision; image-rendering:optimizeQuality; fill-rule:evenodd; clip-rule:evenodd"
viewBox="0 0 455.99 229.21"
 xmlns:xlink="http://www.w3.org/1999/xlink"
 xmlns:xodm="http://www.corel.com/coreldraw/odm/2003">
 <defs>
  <style type="text/css">
   <![CDATA[
    .fil0 {fill:#FEFEFE}
   ]]>
  </style>
 </defs>
 <g id="Layer_x0020_1">
  <metadata id="CorelCorpID_0Corel-Layer"/>
  <g id="_1553048864496">
   <path class="fil0" d="M29.64 170.98l0 58.23 89.22 0 0 -55.35 -58.66 -30.33 0 -9.84 -30.56 14.63 0 12.86 59.12 30.58 0 7.57 -29.5 0 0 -13.02 -29.62 -15.34zm147.03 -16.19l13.96 0 0 12.4 -13.96 0 0 -12.4zm-18.81 -19.5l13.96 0 0 12.4 -13.96 0 0 -12.4zm18.81 0l13.96 0 0 12.4 -13.96 0 0 -12.4zm-18.81 19.5l13.96 0 0 12.4 -13.96 0 0 -12.4zm-97.66 -29l162.17 -84.65c7.35,3.9 14.69,7.81 22.04,11.71 9.79,5.21 19.59,10.41 29.38,15.61 4.9,2.6 9.8,5.2 14.69,7.81 2.45,1.3 4.9,2.6 7.35,3.9 12.24,6.51 24.48,13.01 36.73,19.52 1.96,1.04 3.92,2.08 5.88,3.12 2.45,1.3 4.9,2.6 7.35,3.9 2.2,1.17 4.41,2.34 6.61,3.51 4.9,2.6 9.8,5.21 14.69,7.81 4.9,2.6 9.82,5.16 14.69,7.81l55.97 30.42 -9.14 13.16 27.41 -7.15 -0.04 -10.36 -0.03 -19.79 -12.1 -6.66c-7.16,-3.95 -14.46,-7.67 -21.69,-11.5 -2.45,-1.3 -4.9,-2.6 -7.35,-3.9 -34.31,-18.18 -68.62,-36.37 -102.92,-54.55 -9.68,-5.13 -19.36,-10.26 -29.04,-15.39 -2.45,-1.3 -4.9,-2.6 -7.35,-3.9 -4.9,-2.6 -9.8,-5.2 -14.7,-7.79 -2.45,-1.3 -4.9,-2.6 -7.35,-3.9 -7.23,-3.83 -14.46,-7.66 -21.69,-11.49 -2.94,-1.56 -5.88,-3.12 -8.82,-4.68l-0.37 -0.19c-2.46,1.27 -4.93,2.53 -7.39,3.8 -4.31,2.22 -8.62,4.44 -12.93,6.65 -9.73,5.01 -19.46,10.01 -29.19,15.02 -4.93,2.53 -9.85,5.07 -14.78,7.6 -7.39,3.8 -14.78,7.6 -22.17,11.41 -2.34,1.2 -4.68,2.41 -7.02,3.61 -7.39,3.8 -14.78,7.6 -22.17,11.4 -12.31,6.34 -24.63,12.67 -36.94,19.01 -14.53,7.48 -29.06,14.96 -43.59,22.43 -2.22,1.14 -4.43,2.28 -6.65,3.42 -5.03,2.59 -10.12,5.29 -15.2,7.76 -5.22,2.53 -4.56,4.95 -4.41,10.18 0.2,6.83 0.03,13.67 -0.08,20.5 -0.09,5.3 1.34,4.88 5.55,2.6 4.95,-2.68 9.93,-5.16 14.95,-7.69 7.42,-3.75 14.83,-7.51 22.25,-11.26 5.81,-2.94 11.62,-5.88 17.42,-8.82zm324.27 10.34l0 32.42 -28.26 0 0 -33 26.5 -0.32 -57.54 -31.4 0 125.38 31.04 0 0 -32.58 28.74 0 0 32.58 30.48 0 0 -78.26 -30.97 -14.82zm-157.45 -83.2l0 176.28 29.82 0 0 -61.17 31.19 61.17 33.43 0 -31.19 -62.67 26.45 0 0 -65.62 -89.7 -47.99zm29.58 49.21l0 34.2 28.81 0 0 -19.85 -28.81 -14.35zm-128.62 127.07l0 -128.55 90.05 -47.41 0 175.96 -31.91 0 0 -30.95 -27.54 0 0 30.95 -30.61 0zm-39.41 -109.46l0 26.93 30.05 15.94 0 -58.16 -30.05 15.29z"/>
   <circle class="fil0" cx="180.76" cy="214.65" r="1.31"/>
   <polygon class="fil0" points="325.17,0 356.21,0 356.21,73.69 325.17,56.48 "/>
  </g>
 </g>
</svg>
