<?xml version="1.0" encoding="UTF-8"?>
<!DOCTYPE svg PUBLIC "-//W3C//DTD SVG 1.1//EN" "http://www.w3.org/Graphics/SVG/1.1/DTD/svg11.dtd">
<!-- Creator: CorelDRAW 2021.5 -->
<svg xmlns="http://www.w3.org/2000/svg" xml:space="preserve" width="27.42mm" height="13.7827mm" version="1.1" style="shape-rendering:geometricPrecision; text-rendering:geometricPrecision; image-rendering:optimizeQuality; fill-rule:evenodd; clip-rule:evenodd"
viewBox="0 0 460.92 231.68"
 xmlns:xlink="http://www.w3.org/1999/xlink"
 xmlns:xodm="http://www.corel.com/coreldraw/odm/2003">
 <defs>
  <style type="text/css">
   <![CDATA[
    .fil0 {fill:#373435}
   ]]>
  </style>
 </defs>
 <g id="Layer_x0020_1">
  <metadata id="CorelCorpID_0Corel-Layer"/>
  <g id="_1553098931392">
   <path class="fil0" d="M29.96 172.82l0 58.86 90.19 0 0 -55.95 -59.29 -30.66 0 -9.94 -30.89 14.79 0 13 59.76 30.91 0 7.65 -29.82 0 0 -13.17 -29.94 -15.5zm148.61 -16.37l14.11 0 0 12.53 -14.11 0 0 -12.53zm-19.01 -19.71l14.11 0 0 12.53 -14.11 0 0 -12.53zm19.01 0l14.11 0 0 12.53 -14.11 0 0 -12.53zm-19.01 19.71l14.11 0 0 12.53 -14.11 0 0 -12.53zm-98.71 -29.31l163.92 -85.57c7.42,3.95 14.85,7.89 22.27,11.84 9.9,5.26 19.8,10.52 29.7,15.78 4.95,2.63 9.9,5.26 14.85,7.89 2.48,1.31 4.95,2.63 7.42,3.95 12.38,6.58 24.75,13.15 37.12,19.73 1.98,1.05 3.96,2.1 5.94,3.16 2.48,1.32 4.95,2.63 7.42,3.95 2.23,1.19 4.45,2.37 6.68,3.55 4.95,2.63 9.9,5.26 14.85,7.89 4.95,2.63 9.93,5.22 14.85,7.89l56.57 30.75 -9.24 13.3 27.7 -7.23 -0.05 -10.47 -0.03 -20.01 -12.23 -6.74c-7.24,-3.99 -14.61,-7.75 -21.92,-11.62 -2.48,-1.31 -4.95,-2.63 -7.43,-3.94 -34.68,-18.38 -69.36,-36.76 -104.04,-55.14 -9.78,-5.19 -19.57,-10.37 -29.35,-15.56 -2.48,-1.31 -4.95,-2.63 -7.43,-3.94 -4.95,-2.63 -9.91,-5.25 -14.86,-7.88 -2.48,-1.31 -4.96,-2.63 -7.43,-3.94 -7.31,-3.87 -14.61,-7.75 -21.92,-11.62 -2.97,-1.58 -5.95,-3.15 -8.92,-4.73l-0.37 -0.2c-2.49,1.28 -4.98,2.56 -7.47,3.84 -4.36,2.24 -8.71,4.48 -13.07,6.73 -9.83,5.06 -19.67,10.12 -29.5,15.18 -4.98,2.56 -9.96,5.12 -14.94,7.69 -7.47,3.84 -14.94,7.69 -22.41,11.53 -2.37,1.22 -4.73,2.43 -7.09,3.65 -7.47,3.84 -14.94,7.69 -22.41,11.53 -12.45,6.41 -24.9,12.81 -37.34,19.22 -14.69,7.56 -29.38,15.12 -44.06,22.67 -2.24,1.15 -4.48,2.31 -6.72,3.46 -5.09,2.62 -10.23,5.35 -15.37,7.84 -5.27,2.56 -4.61,5 -4.45,10.29 0.2,6.91 0.03,13.82 -0.08,20.73 -0.09,5.36 1.35,4.94 5.61,2.63 5,-2.71 10.04,-5.21 15.11,-7.78 7.5,-3.79 14.99,-7.59 22.49,-11.38 5.87,-2.97 11.74,-5.94 17.61,-8.91zm327.77 10.45l0 32.77 -28.56 0 0 -33.35 26.79 -0.33 -58.17 -31.74 0 126.74 31.38 0 0 -32.93 29.06 0 0 32.93 30.81 0 0 -79.11 -31.3 -14.98zm-159.15 -84.1l0 178.18 30.14 0 0 -61.83 31.52 61.83 33.79 0 -31.52 -63.34 26.73 0 0 -66.33 -90.67 -48.51zm29.9 49.74l0 34.57 29.12 0 0 -20.07 -29.12 -14.51zm-130.01 128.44l0 -129.94 91.03 -47.92 0 177.87 -32.25 0 0 -31.28 -27.84 0 0 31.28 -30.94 0zm-39.83 -110.64l0 27.22 30.37 16.11 0 -58.79 -30.37 15.46z"/>
   <circle class="fil0" cx="182.71" cy="216.97" r="1.32"/>
   <polygon class="fil0" points="328.68,0 360.06,0 360.06,74.48 328.68,57.09 "/>
  </g>
 </g>
</svg>
